<svg width="167" height="24" viewBox="0 0 167 24" fill="none" xmlns="http://www.w3.org/2000/svg">
<rect width="55" height="24" rx="12" transform="matrix(-1 0 0 1 55 0)" fill="#4731D3"/>
<ellipse cx="7.5" cy="8" rx="7.5" ry="8" transform="matrix(-1 0 0 1 50 4)" fill="#FFE86E"/>
<circle cx="1" cy="1" r="1" transform="matrix(-1 0 0 1 52 11)" fill="#E92577"/>
<path d="M68.8153 17H64.9482V6.09091H68.8473C69.9446 6.09091 70.8892 6.3093 71.6811 6.74609C72.473 7.17933 73.082 7.80256 73.5082 8.61577C73.9379 9.42898 74.1527 10.402 74.1527 11.5348C74.1527 12.6712 73.9379 13.6477 73.5082 14.4645C73.082 15.2812 72.4695 15.908 71.6705 16.3448C70.875 16.7816 69.9233 17 68.8153 17ZM67.2546 15.0238H68.7195C69.4013 15.0238 69.9748 14.9031 70.44 14.6616C70.9087 14.4165 71.2603 14.0384 71.4947 13.527C71.7326 13.0121 71.8516 12.348 71.8516 11.5348C71.8516 10.7287 71.7326 10.07 71.4947 9.55859C71.2603 9.04723 70.9105 8.67081 70.4453 8.42933C69.9801 8.18786 69.4066 8.06712 68.7248 8.06712H67.2546V15.0238ZM78.6263 17H76.1547L79.9207 6.09091H82.893L86.6537 17H84.1821L81.4495 8.58381H81.3643L78.6263 17ZM78.4719 12.712H84.3099V14.5124H78.4719V12.712ZM89.4667 17V6.09091H93.7707C94.5945 6.09091 95.2977 6.23828 95.8801 6.53303C96.466 6.82422 96.9117 7.23793 97.2171 7.77415C97.526 8.30682 97.6805 8.93359 97.6805 9.65447C97.6805 10.3789 97.5242 11.0021 97.2117 11.5241C96.8992 12.0426 96.4465 12.4403 95.8534 12.7173C95.2639 12.9943 94.5502 13.1328 93.7121 13.1328H90.8303V11.2791H93.3392C93.7796 11.2791 94.1453 11.2187 94.4365 11.098C94.7277 10.9773 94.9443 10.7962 95.0864 10.5547C95.232 10.3132 95.3048 10.0131 95.3048 9.65447C95.3048 9.29226 95.232 8.98686 95.0864 8.73828C94.9443 8.4897 94.7259 8.30149 94.4312 8.17365C94.14 8.04226 93.7725 7.97656 93.3286 7.97656H91.7732V17H89.4667ZM95.358 12.0355L98.0693 17H95.5232L92.8705 12.0355H95.358ZM100.81 17V6.09091H103.117V10.9009H103.261L107.187 6.09091H109.951L105.903 10.9755L109.999 17H107.24L104.252 12.5149L103.117 13.8999V17H100.81ZM117.624 6.09091H120.468L123.473 13.4205H123.6L126.605 6.09091H129.449V17H127.212V9.8995H127.121L124.298 16.9467H122.775L119.952 9.87287H119.861V17H117.624V6.09091ZM142.874 11.5455C142.874 12.7351 142.649 13.7472 142.198 14.5817C141.75 15.4162 141.14 16.0536 140.366 16.494C139.595 16.9308 138.728 17.1491 137.766 17.1491C136.797 17.1491 135.927 16.929 135.156 16.4886C134.385 16.0483 133.776 15.4109 133.329 14.5763C132.881 13.7418 132.658 12.7315 132.658 11.5455C132.658 10.3558 132.881 9.34375 133.329 8.50923C133.776 7.67472 134.385 7.03906 135.156 6.60227C135.927 6.16193 136.797 5.94176 137.766 5.94176C138.728 5.94176 139.595 6.16193 140.366 6.60227C141.14 7.03906 141.75 7.67472 142.198 8.50923C142.649 9.34375 142.874 10.3558 142.874 11.5455ZM140.536 11.5455C140.536 10.7749 140.421 10.125 140.19 9.59588C139.962 9.06676 139.641 8.66548 139.226 8.39205C138.81 8.11861 138.324 7.98189 137.766 7.98189C137.209 7.98189 136.722 8.11861 136.307 8.39205C135.891 8.66548 135.568 9.06676 135.337 9.59588C135.11 10.125 134.996 10.7749 134.996 11.5455C134.996 12.3161 135.11 12.9659 135.337 13.495C135.568 14.0241 135.891 14.4254 136.307 14.6989C136.722 14.9723 137.209 15.109 137.766 15.109C138.324 15.109 138.81 14.9723 139.226 14.6989C139.641 14.4254 139.962 14.0241 140.19 13.495C140.421 12.9659 140.536 12.3161 140.536 11.5455ZM149.95 17H146.083V6.09091H149.982C151.079 6.09091 152.024 6.3093 152.816 6.74609C153.608 7.17933 154.217 7.80256 154.643 8.61577C155.073 9.42898 155.287 10.402 155.287 11.5348C155.287 12.6712 155.073 13.6477 154.643 14.4645C154.217 15.2812 153.604 15.908 152.805 16.3448C152.01 16.7816 151.058 17 149.95 17ZM148.389 15.0238H149.854C150.536 15.0238 151.11 14.9031 151.575 14.6616C152.044 14.4165 152.395 14.0384 152.629 13.527C152.867 13.0121 152.986 12.348 152.986 11.5348C152.986 10.7287 152.867 10.07 152.629 9.55859C152.395 9.04723 152.045 8.67081 151.58 8.42933C151.115 8.18786 150.541 8.06712 149.86 8.06712H148.389V15.0238ZM158.496 17V6.09091H165.847V7.99254H160.802V10.592H165.469V12.4936H160.802V15.0984H165.868V17H158.496Z" fill="#777777"/>
</svg>
