<svg width="127" height="52" viewBox="0 0 127 52" fill="none" xmlns="http://www.w3.org/2000/svg">
<rect x="0.5" y="0.500183" width="126" height="51" rx="5.5" fill="white"/>
<rect x="0.5" y="0.500183" width="126" height="51" rx="5.5" stroke="#3730A3"/>
<path d="M24.9993 12.8723C18.6241 12.8715 13.1896 17.6604 12.1688 24.1785C11.1481 30.6967 14.8427 37.0193 20.8913 39.1057C21.5427 39.2272 21.776 38.8129 21.776 38.4566C21.776 38.1368 21.7655 37.2893 21.7616 36.1624C18.1461 36.9721 17.3826 34.3567 17.3826 34.3567C17.1445 33.5429 16.6328 32.8444 15.9402 32.3878C14.7676 31.5524 16.0301 31.5713 16.0301 31.5713C16.8649 31.6899 17.5996 32.2022 18.0197 32.9586C18.3753 33.6283 18.9744 34.1232 19.6839 34.3333C20.3934 34.5434 21.1545 34.4512 21.7981 34.0774C21.8586 33.3945 22.1519 32.7563 22.6255 32.2771C19.7408 31.9384 16.7076 30.7832 16.7076 25.624C16.6916 24.2896 17.17 22.9995 18.0444 22.0194C17.6488 20.8579 17.6954 19.5838 18.1747 18.4566C18.1747 18.4566 19.2653 18.0936 21.7473 19.8345C23.876 19.2299 26.1227 19.2299 28.2514 19.8345C30.7347 18.0923 31.824 18.4566 31.824 18.4566C32.3055 19.5833 32.3521 20.8582 31.9543 22.0194C32.8318 22.9995 33.3099 24.2929 33.2884 25.6294C33.2884 30.8021 30.2527 31.9384 27.3576 32.2717C27.9821 32.9331 28.3024 33.8403 28.2371 34.763C28.2371 36.5632 28.2214 38.0153 28.2214 38.4566C28.2214 38.8169 28.4534 39.2353 29.1165 39.103C35.1626 37.0131 38.8532 30.6901 37.8304 24.1737C36.8076 17.6573 31.3732 12.8708 24.9993 12.8723Z" fill="#3730A3"/>
<path d="M58.2976 24.0449C58.174 23.6571 58.0078 23.3098 57.799 23.003C57.5945 22.6919 57.3494 22.4277 57.0639 22.2104C56.7784 21.9888 56.4524 21.8205 56.0859 21.7054C55.7237 21.5904 55.3253 21.5329 54.8906 21.5329C54.1534 21.5329 53.4886 21.7225 52.8963 22.1017C52.304 22.481 51.8352 23.0371 51.4901 23.7701C51.1491 24.4988 50.9787 25.3915 50.9787 26.4483C50.9787 27.5094 51.1513 28.4064 51.4964 29.1394C51.8416 29.8723 52.3146 30.4285 52.9155 30.8077C53.5163 31.187 54.2003 31.3766 54.9673 31.3766C55.679 31.3766 56.299 31.2317 56.8274 30.9419C57.3601 30.6522 57.7713 30.2431 58.0611 29.7147C58.3551 29.182 58.5021 28.5556 58.5021 27.8354L59.0135 27.9313H55.2678V26.3013H60.4134V27.7907C60.4134 28.8901 60.179 29.8446 59.7102 30.6543C59.2457 31.4597 58.6023 32.0819 57.7798 32.5208C56.9616 32.9597 56.0241 33.1792 54.9673 33.1792C53.7827 33.1792 52.7429 32.9064 51.848 32.361C50.9574 31.8155 50.2628 31.0421 49.7642 30.0407C49.2656 29.035 49.0163 27.8418 49.0163 26.4611C49.0163 25.4171 49.1612 24.4796 49.451 23.6486C49.7408 22.8177 50.1477 22.1124 50.6719 21.5329C51.2003 20.949 51.8203 20.5037 52.532 20.1969C53.2479 19.8858 54.0298 19.7303 54.8778 19.7303C55.5852 19.7303 56.2436 19.8347 56.853 20.0435C57.4666 20.2523 58.0121 20.5485 58.4893 20.932C58.9709 21.3155 59.3693 21.7715 59.6847 22.2999C60 22.824 60.2131 23.4057 60.3239 24.0449H58.2976ZM63.3825 33.0002V23.182H65.2937V33.0002H63.3825ZM64.3477 21.6671C64.0153 21.6671 63.7298 21.5563 63.4911 21.3347C63.2567 21.1088 63.1396 20.8404 63.1396 20.5293C63.1396 20.214 63.2567 19.9455 63.4911 19.7239C63.7298 19.4981 64.0153 19.3851 64.3477 19.3851C64.68 19.3851 64.9634 19.4981 65.1978 19.7239C65.4364 19.9455 65.5558 20.214 65.5558 20.5293C65.5558 20.8404 65.4364 21.1088 65.1978 21.3347C64.9634 21.5563 64.68 21.6671 64.3477 21.6671ZM72.448 23.182V24.7161H67.085V23.182H72.448ZM68.5233 20.8297H70.4345V30.1174C70.4345 30.4881 70.4899 30.7672 70.6007 30.9547C70.7115 31.138 70.8542 31.2637 71.0289 31.3319C71.2079 31.3958 71.4018 31.4277 71.6106 31.4277C71.764 31.4277 71.8983 31.4171 72.0133 31.3958C72.1284 31.3745 72.2179 31.3574 72.2818 31.3446L72.627 32.9235C72.5162 32.9661 72.3585 33.0087 72.1539 33.0513C71.9494 33.0982 71.6937 33.1238 71.3869 33.128C70.8841 33.1365 70.4153 33.0471 69.9806 32.8596C69.546 32.6721 69.1944 32.3823 68.926 31.9902C68.6575 31.5982 68.5233 31.106 68.5233 30.5137V20.8297ZM76.6843 27.1706V33.0002H74.7731V19.9093H76.6587V24.78H76.7802C77.0103 24.2516 77.3619 23.8319 77.8349 23.5208C78.3079 23.2097 78.9258 23.0542 79.6886 23.0542C80.3619 23.0542 80.9499 23.1927 81.4528 23.4696C81.9599 23.7466 82.3519 24.16 82.6289 24.7097C82.9102 25.2552 83.0508 25.937 83.0508 26.7552V33.0002H81.1396V26.9853C81.1396 26.2651 80.9542 25.7069 80.5835 25.3106C80.2127 24.91 79.6971 24.7097 79.0366 24.7097C78.5849 24.7097 78.18 24.8056 77.8221 24.9973C77.4684 25.1891 77.1893 25.4704 76.9847 25.8411C76.7844 26.2076 76.6843 26.6508 76.6843 27.1706ZM91.8207 28.9285V23.182H93.7383V33.0002H91.859V31.2999H91.7567C91.5309 31.824 91.1687 32.2608 90.6701 32.6103C90.1758 32.9554 89.56 33.128 88.8228 33.128C88.1921 33.128 87.6339 32.9895 87.1481 32.7125C86.6665 32.4313 86.2873 32.0158 86.0103 31.4661C85.7376 30.9164 85.6012 30.2367 85.6012 29.427V23.182H87.5124V29.1969C87.5124 29.8659 87.6978 30.3986 88.0685 30.7949C88.4393 31.1912 88.9208 31.3894 89.5131 31.3894C89.8711 31.3894 90.2269 31.2999 90.5806 31.1209C90.9386 30.9419 91.2347 30.6713 91.4691 30.3091C91.7077 29.9469 91.8249 29.4867 91.8207 28.9285ZM96.4597 33.0002V19.9093H98.3709V24.7736H98.486C98.5968 24.5691 98.7566 24.3326 98.9654 24.0641C99.1742 23.7956 99.464 23.5613 99.8347 23.361C100.205 23.1564 100.695 23.0542 101.305 23.0542C102.097 23.0542 102.805 23.2544 103.427 23.655C104.049 24.0556 104.537 24.633 104.891 25.3873C105.249 26.1415 105.428 27.0492 105.428 28.1103C105.428 29.1713 105.251 30.0811 104.897 30.8397C104.544 31.5939 104.058 32.1756 103.44 32.5847C102.822 32.9895 102.117 33.1919 101.324 33.1919C100.727 33.1919 100.24 33.0918 99.8603 32.8915C99.4853 32.6912 99.1912 32.4569 98.9782 32.1884C98.7651 31.9199 98.601 31.6813 98.486 31.4725H98.3262V33.0002H96.4597ZM98.3326 28.0911C98.3326 28.7814 98.4327 29.3865 98.633 29.9064C98.8333 30.4263 99.123 30.8333 99.5023 31.1273C99.8816 31.4171 100.346 31.562 100.896 31.562C101.467 31.562 101.944 31.4107 102.328 31.1081C102.711 30.8013 103.001 30.3858 103.197 29.8617C103.397 29.3375 103.497 28.7473 103.497 28.0911C103.497 27.4434 103.399 26.8617 103.203 26.3461C103.012 25.8304 102.722 25.4235 102.334 25.1252C101.95 24.8269 101.471 24.6777 100.896 24.6777C100.342 24.6777 99.873 24.8205 99.4895 25.106C99.1103 25.3915 98.8226 25.79 98.6266 26.3013C98.4306 26.8127 98.3326 27.4093 98.3326 28.0911Z" fill="#3730A3"/>
</svg>
