<svg width="139" height="52" viewBox="0 0 139 52" fill="none" xmlns="http://www.w3.org/2000/svg">
<rect x="0.5" y="0.500183" width="138" height="51" rx="5.5" fill="white"/>
<rect x="0.5" y="0.500183" width="138" height="51" rx="5.5" stroke="#3730A3"/>
<path d="M25.3333 38.6029H20V21.7993H25.3333V24.5999C26.4701 23.0809 28.1941 22.1754 30.0333 22.1312C33.3407 22.1504 36.0096 24.9771 36 28.4507V38.6029H30.6666V29.1509C30.4533 27.5862 29.1756 26.4253 27.6706 26.4287C27.0123 26.4505 26.391 26.7532 25.9499 27.2669C25.5088 27.7806 25.2862 28.4609 25.3333 29.1509V38.6029ZM17.3333 38.6029H12V21.7993H17.3333V38.6029ZM14.6667 18.9987C13.1939 18.9987 12 17.7448 12 16.1981C12 14.6513 13.1939 13.3975 14.6667 13.3975C16.1394 13.3975 17.3333 14.6513 17.3333 16.1981C17.3333 16.9408 17.0524 17.6532 16.5523 18.1784C16.0522 18.7036 15.3739 18.9987 14.6667 18.9987Z" fill="#3730A3"/>
<path d="M47.4382 33.0002V19.9093H49.4134V31.2999H55.3452V33.0002H47.4382ZM57.445 33.0002V23.182H59.3562V33.0002H57.445ZM58.4102 21.6671C58.0778 21.6671 57.7923 21.5563 57.5536 21.3347C57.3192 21.1088 57.2021 20.8404 57.2021 20.5293C57.2021 20.214 57.3192 19.9455 57.5536 19.7239C57.7923 19.4981 58.0778 19.3851 58.4102 19.3851C58.7425 19.3851 59.0259 19.4981 59.2603 19.7239C59.4989 19.9455 59.6183 20.214 59.6183 20.5293C59.6183 20.8404 59.4989 21.1088 59.2603 21.3347C59.0259 21.5563 58.7425 21.6671 58.4102 21.6671ZM63.8386 27.1706V33.0002H61.9274V23.182H63.7619V24.78H63.8833C64.1092 24.2601 64.4629 23.8425 64.9444 23.5272C65.4302 23.2118 66.0417 23.0542 66.7789 23.0542C67.448 23.0542 68.0339 23.1948 68.5368 23.476C69.0396 23.753 69.4295 24.1664 69.7065 24.7161C69.9835 25.2658 70.122 25.9455 70.122 26.7552V33.0002H68.2108V26.9853C68.2108 26.2736 68.0254 25.7175 67.6547 25.3169C67.2839 24.9121 66.7747 24.7097 66.127 24.7097C65.6838 24.7097 65.2896 24.8056 64.9444 24.9973C64.6035 25.1891 64.3329 25.4704 64.1326 25.8411C63.9366 26.2076 63.8386 26.6508 63.8386 27.1706ZM74.443 29.6699L74.4302 27.3368H74.7626L78.6745 23.182H80.9629L76.5012 27.9121H76.2008L74.443 29.6699ZM72.6852 33.0002V19.9093H74.5964V33.0002H72.6852ZM78.8855 33.0002L75.3699 28.334L76.6866 26.9981L81.2314 33.0002H78.8855ZM86.532 33.1983C85.5646 33.1983 84.7315 32.9917 84.0327 32.5783C83.3381 32.1607 82.8011 31.5748 82.4219 30.8205C82.0469 30.062 81.8594 29.1735 81.8594 28.155C81.8594 27.1493 82.0469 26.263 82.4219 25.4959C82.8011 24.7289 83.3295 24.1302 84.0071 23.6998C84.6889 23.2694 85.4858 23.0542 86.3977 23.0542C86.9517 23.0542 87.4886 23.1458 88.0085 23.329C88.5284 23.5123 88.995 23.7999 89.4084 24.1919C89.8217 24.584 90.1477 25.0932 90.3864 25.7196C90.625 26.3418 90.7443 27.0982 90.7443 27.9888V28.6664H82.9396V27.2346H88.8714C88.8714 26.7317 88.7692 26.2864 88.5646 25.8986C88.3601 25.5066 88.0724 25.1976 87.7017 24.9718C87.3352 24.7459 86.9048 24.633 86.4105 24.633C85.8736 24.633 85.4048 24.7651 85.0043 25.0293C84.608 25.2892 84.3011 25.6302 84.0838 26.052C83.8707 26.4696 83.7642 26.9235 83.7642 27.4135V28.5321C83.7642 29.1884 83.8793 29.7466 84.1094 30.2069C84.3438 30.6671 84.6697 31.0186 85.0874 31.2615C85.505 31.5002 85.9929 31.6195 86.5511 31.6195C86.9134 31.6195 87.2436 31.5684 87.5419 31.4661C87.8402 31.3596 88.098 31.2019 88.3153 30.9931C88.5327 30.7843 88.6989 30.5265 88.8139 30.2196L90.6229 30.5456C90.478 31.0783 90.218 31.5449 89.843 31.9455C89.4723 32.3418 89.0057 32.6508 88.4432 32.8723C87.8849 33.0897 87.2479 33.1983 86.532 33.1983ZM96.5403 33.1919C95.7477 33.1919 95.0403 32.9895 94.4181 32.5847C93.8002 32.1756 93.3145 31.5939 92.9608 30.8397C92.6113 30.0811 92.4366 29.1713 92.4366 28.1103C92.4366 27.0492 92.6135 26.1415 92.9672 25.3873C93.3251 24.633 93.8152 24.0556 94.4373 23.655C95.0595 23.2544 95.7647 23.0542 96.5531 23.0542C97.1625 23.0542 97.6525 23.1564 98.0233 23.361C98.3983 23.5613 98.688 23.7956 98.8926 24.0641C99.1014 24.3326 99.2633 24.5691 99.3784 24.7736H99.4934V19.9093H101.405V33.0002H99.5382V31.4725H99.3784C99.2633 31.6813 99.0971 31.9199 98.8798 32.1884C98.6667 32.4569 98.3727 32.6912 97.9977 32.8915C97.6227 33.0918 97.1369 33.1919 96.5403 33.1919ZM96.9622 31.562C97.5119 31.562 97.9764 31.4171 98.3556 31.1273C98.7392 30.8333 99.0289 30.4263 99.225 29.9064C99.4252 29.3865 99.5254 28.7814 99.5254 28.0911C99.5254 27.4093 99.4274 26.8127 99.2314 26.3013C99.0353 25.79 98.7477 25.3915 98.3684 25.106C97.9892 24.8205 97.5204 24.6777 96.9622 24.6777C96.3869 24.6777 95.9075 24.8269 95.524 25.1252C95.1404 25.4235 94.8507 25.8304 94.6547 26.3461C94.4629 26.8617 94.367 27.4434 94.367 28.0911C94.367 28.7473 94.465 29.3375 94.661 29.8617C94.8571 30.3858 95.1468 30.8013 95.5304 31.1081C95.9181 31.4107 96.3954 31.562 96.9622 31.562ZM104.132 33.0002V23.182H106.044V33.0002H104.132ZM105.098 21.6671C104.765 21.6671 104.48 21.5563 104.241 21.3347C104.007 21.1088 103.89 20.8404 103.89 20.5293C103.89 20.214 104.007 19.9455 104.241 19.7239C104.48 19.4981 104.765 19.3851 105.098 19.3851C105.43 19.3851 105.713 19.4981 105.948 19.7239C106.186 19.9455 106.306 20.214 106.306 20.5293C106.306 20.8404 106.186 21.1088 105.948 21.3347C105.713 21.5563 105.43 21.6671 105.098 21.6671ZM110.526 27.1706V33.0002H108.615V23.182H110.449V24.78H110.571C110.797 24.2601 111.15 23.8425 111.632 23.5272C112.118 23.2118 112.729 23.0542 113.466 23.0542C114.135 23.0542 114.721 23.1948 115.224 23.476C115.727 23.753 116.117 24.1664 116.394 24.7161C116.671 25.2658 116.809 25.9455 116.809 26.7552V33.0002H114.898V26.9853C114.898 26.2736 114.713 25.7175 114.342 25.3169C113.971 24.9121 113.462 24.7097 112.814 24.7097C112.371 24.7097 111.977 24.8056 111.632 24.9973C111.291 25.1891 111.02 25.4704 110.82 25.8411C110.624 26.2076 110.526 26.6508 110.526 27.1706Z" fill="#3730A3"/>
</svg>
